<svg xmlns="http://www.w3.org/2000/svg" width="48" height="48" viewBox="0 0 48 48" aria-hidden="true"><g fill="none" fill-rule="evenodd"><g fill="#00A650"><g><g><g><path d="M24 1c12.703 0 23 10.297 23 23 0 6.119-2.39 11.68-6.286 15.8l.033.078-.18.077C36.381 44.298 30.506 47 24 47 11.297 47 1 36.703 1 24S11.297 1 24 1zm8.001 34h-16.03c-2.503 0-5.206 1.913-6.407 4.478l.076-.155C13.395 42.843 18.446 45 24 45c5.543 0 10.585-2.148 14.338-5.656C37.116 36.858 34.468 35 32 35zM24 3C12.402 3 3 12.402 3 24c0 5.29 1.956 10.123 5.184 13.816C9.848 35 12.935 33 15.97 33h16.031c3.049 0 6.141 2.019 7.796 4.837C43.037 34.143 45 29.3 45 24c0-11.598-9.402-21-21-21zm-.031 4c6.075 0 11 4.925 11 11s-4.925 11-11 11-11-4.925-11-11 4.925-11 11-11zm0 2c-4.97 0-9 4.03-9 9s4.03 9 9 9 9-4.03 9-9-4.03-9-9-9z" transform="translate(-156 -125) translate(20 109) translate(120) translate(16 16)"></path></g></g></g></g></g></svg>