<svg width="180" height="155" viewBox="0 0 180 155" fill="none" xmlns="http://www.w3.org/2000/svg" aria-hidden="true">
    <path fill-rule="evenodd" clip-rule="evenodd" d="M45.5885 153.286C32.0331 145.383 18.7601 133.871 10.8429 120.092C-3.0477 95.9158 -1.13359 78.2816 6.00865 60.3421C13.2259 42.2083 39.6065 31.5238 59.8874 34.9083C80.1682 38.2928 94.3644 59.341 121.715 62.3609C149.066 65.3808 171.301 79.6937 177.682 100.163C184.382 121.655 171.264 139.62 159.47 148.232C157.039 150.007 154.595 151.682 152.105 153.244L45.5885 153.286Z" fill="black" fill-opacity="0.04"></path>
    <path fill-rule="evenodd" clip-rule="evenodd" d="M56.697 54.7352V34.6918C56.697 16.2423 71.7569 1.28564 90.3338 1.28564C108.911 1.28564 123.97 16.2423 123.97 34.6918V54.7352L112.449 54.6882V35.4388C112.449 23.3085 102.548 13.4755 90.3338 13.4755C78.1197 13.4755 68.218 23.3085 68.218 35.4388V54.6882L56.697 54.7352Z" fill="white" stroke="#333333" stroke-width="1.5"></path>
    <path fill-rule="evenodd" clip-rule="evenodd" d="M130.568 51.5317C133.346 51.5317 135.862 52.6579 137.682 54.4786C139.503 56.2994 140.629 58.8147 140.629 61.5931V141.663C140.629 144.442 139.503 146.957 137.682 148.778C135.862 150.598 133.346 151.725 130.568 151.725H50.0988C47.3205 151.725 44.8051 150.598 42.9844 148.778C41.1636 146.957 40.0375 144.442 40.0375 141.663V61.5931C40.0375 58.8147 41.1636 56.2994 42.9844 54.4786C44.8051 52.6579 47.3205 51.5317 50.0988 51.5317H130.568Z" fill="#FFE600" stroke="white" stroke-width="3"></path>
    <path fill-rule="evenodd" clip-rule="evenodd" d="M50.0988 49.9946H130.568C136.974 49.9946 142.167 55.1876 142.167 61.5934V141.664C142.167 148.069 136.974 153.262 130.568 153.262H50.0988C43.6929 153.262 38.5 148.069 38.5 141.664V61.5934C38.5 55.1876 43.6929 49.9946 50.0988 49.9946Z" stroke="#333333" stroke-width="1.5"></path>
    <path d="M17.5 81.7534H144.401V121.503H17.5V81.7534Z" fill="white" stroke="#333333" stroke-width="1.5"></path>
    <line x1="17.8334" y1="153.286" x2="162.833" y2="153.286" stroke="#333333" stroke-width="1.5"></line>
    <path d="M62.7037 108.098L62.4341 102.931L66.747 105.762L67.7803 103.965L63.1979 101.628L67.7803 99.2923L66.747 97.5402L62.4341 100.326L62.7037 95.1592H60.6371L60.8618 100.326L56.5489 97.5402L55.5605 99.2923L60.1429 101.628L55.5605 103.965L56.5489 105.762L60.8618 102.931L60.6371 108.098H62.7037Z" fill="#333333"></path>
    <path d="M37.4867 108.098L37.2171 102.931L41.53 105.762L42.5632 103.965L37.9808 101.628L42.5632 99.2923L41.53 97.5402L37.2171 100.326L37.4867 95.1592H35.4201L35.6447 100.326L31.3319 97.5402L30.3435 99.2923L34.9259 101.628L30.3435 103.965L31.3319 105.762L35.6447 102.931L35.4201 108.098H37.4867Z" fill="#333333"></path>
    <path d="M87.9207 108.098L87.6512 102.931L91.964 105.762L92.9973 103.965L88.4149 101.628L92.9973 99.2923L91.964 97.5402L87.6512 100.326L87.9207 95.1592H85.8542L86.0788 100.326L81.766 97.5402L80.7776 99.2923L85.36 101.628L80.7776 103.965L81.766 105.762L86.0788 102.931L85.8542 108.098H87.9207Z" fill="#333333"></path>
    <path d="M112.43 108.098L112.16 102.931L116.473 105.762L117.506 103.965L112.924 101.628L117.506 99.2923L116.473 97.5402L112.16 100.326L112.43 95.1592H110.363L110.588 100.326L106.275 97.5402L105.286 99.2923L109.869 101.628L105.286 103.965L106.275 105.762L110.588 102.931L110.363 108.098H112.43Z" fill="#333333"></path>
    <path d="M167.48 101.901C167.48 112.558 159.032 121.143 148.679 121.143C138.326 121.143 129.879 112.558 129.879 101.901C129.879 91.2434 138.326 82.6592 148.679 82.6592C159.032 82.6592 167.48 91.2434 167.48 101.901Z" fill="#FFE600" stroke="white" stroke-width="3"></path>
    <ellipse cx="148.679" cy="101.901" rx="20.3004" ry="20.7417" stroke="#333333" stroke-width="1.5"></ellipse>
    <path d="M136.771 102.544L144.248 109.403L160.135 94.8271" stroke="#333333" stroke-width="1.5"></path>
</svg>