<svg width="208px" height="160px" viewBox="0 0 208 160" version="1.1" xmlns="http://www.w3.org/2000/svg" aria-hidden="true">
    <title>Phone</title>
    <g id="Registro-ML---nativo-" stroke="none" stroke-width="1" fill="none" fill-rule="evenodd">
        <g id="Validación-de-teléfono---Congrats" transform="translate(-76.000000, -132.000000)">
            <g id="Group-2" transform="translate(20.000000, 132.000000)"></g>
            <g id="Phone" transform="translate(76.000000, 132.000000)">
                <rect id="Rectangle" x="0" y="0" width="208" height="160"></rect>
                <path d="M163.984166,148.7 C181.616566,137.865946 196.481592,114.336389 196.481592,114.336389 C236.637232,45.9903143 160.245287,-11.2094311 125.480524,21.4352995 C90.7157608,54.0800301 100.089716,44.3739655 52.8753738,41.1671334 C-5.431438,37.2068927 -13.4797712,107.056697 18.7345571,148.7 L163.984166,148.7 Z" id="Fill-1" fill="#EEEEEE" fill-rule="nonzero" transform="translate(103.927413, 80.350000) scale(-1, 1) translate(-103.927413, -80.350000) "></path>
                <g id="telefono" transform="translate(26.500000, 9.500000)">
                    <g id="Group-2" transform="translate(0.621149, 0.211205)">
                        <g id="Group-8-Copy-3" transform="translate(27.436926, 0.000000)">
                            <g id="Group-94" transform="translate(0.000000, 0.315076)">
                                <path d="M1.21346619,113.181314 L1.21346619,11.0442446 C1.21346619,5.0223384 6.09518569,0.140618899 12.1170919,0.140618899 L97.5208469,0.140618899 C103.542753,0.140618899 108.424473,5.0223384 108.424473,11.0442446 L108.424473,113.134158" id="Path" fill="#FFFFFF" fill-rule="nonzero"></path>
                                <path d="M1.09812333,138.572478 L1.09812333,112.723192 L1.09812333,30.9227961 C1.09812333,29.3097855 2.55215604,28.0021821 4.34579629,28.0021821 L105.016651,28.0021821 C106.810291,28.0021821 108.264324,29.3097855 108.264324,30.9227961 L108.264324,111.993039 L108.264324,138.572478" id="Path" fill="#FFFFFF" fill-rule="nonzero"></path>
                                <path d="M6.63198872,138.572478 L6.63198872,112.723192 L6.63198872,30.9227961 C6.63198872,29.3097855 7.93959216,28.0021821 9.55260275,28.0021821 L100.085336,28.0021821 C101.698347,28.0021821 103.00595,29.3097855 103.00595,30.9227961 L103.00595,111.993039 L103.00595,138.572478" id="Path" stroke="#333333" stroke-width="1.2"></path>
                                <g id="Group-19" transform="translate(40.375708, 10.945062)">
                                    <path d="M8.57692323,1.26047553 L27.8798454,1.26047553 L8.57692323,1.26047553 Z" id="Stroke-98-Copy" stroke="#333333" stroke-width="1.2"></path>
                                    <circle id="Oval" fill="#333333" fill-rule="nonzero" cx="1.79140372" cy="1.25797896" r="1.26047553"></circle>
                                </g>
                                <path d="M108.424473,109.223651 L108.424473,138.668799 M1.21346619,138.572478 C1.21346619,135.479579 1.21346619,122.707568 1.21346619,115.948047 L1.21346619,138.572478 Z M1.21346619,110.916024 C1.21346619,90.9262276 1.21346619,51.0238379 1.21346619,11.0442446 C1.21346619,5.0223384 6.09518569,0.140618899 12.1170919,0.140618899 L97.5208469,0.140618899 C103.542753,0.140618899 108.424473,5.0223384 108.424473,11.0442446 C108.424473,14.4128145 108.424473,17.5404934 108.424473,20.4272813 M108.424473,25.4512455 C108.424473,26.9948481 108.424473,28.4530369 108.424473,29.8258118 M108.424473,35.2484085 C108.424473,36.0566531 108.424473,36.8208573 108.424473,37.541021 L108.424473,112.544237" id="Shape" stroke="#333333" stroke-width="1.2"></path>
                            </g>
                        </g>
                        <line x1="0.276603952" y1="138.887554" x2="163.918566" y2="138.887554" id="Line-2-Copy-4" stroke="#333333" stroke-width="1.2" stroke-linecap="square"></line>
                        <g id="Group-33-Copy-6" transform="translate(5.437090, 63.223708)" fill-rule="nonzero">
                            <g id="Group-32" transform="translate(0.170707, 0.000000)">
                                <g id="Group-23" transform="translate(0.164607, 0.000000)">
                                    <rect id="Rectangle-Copy-9" stroke="#333333" stroke-width="1.2" fill="#FFFFFF" x="8.05881381e-13" y="0" width="32.9755929" height="41.398753" rx="2"></rect>
                                    <path d="M29.9755929,4 L29.9755929,37.398753 C29.9755929,37.9510377 29.5278777,38.398753 28.9755929,38.398753 L4,38.398753 C3.44771525,38.398753 3,37.9510377 3,37.398753 L3,4 C3,3.44771525 3.44771525,3 4,3 L28.9755929,3 C29.5278777,3 29.9755929,3.44771525 29.9755929,4 Z" id="Rectangle-Copy-9" fill="#FFE600"></path>
                                    <rect id="Rectangle-Copy-10" stroke="#333333" stroke-width="1.2" fill="#FFFFFF" x="39.5707115" y="0" width="32.9755929" height="41.398753" rx="2"></rect>
                                    <path d="M69.5463044,4 L69.5463044,37.398753 C69.5463044,37.9510377 69.0985892,38.398753 68.5463044,38.398753 L43.5707115,38.398753 C43.0184267,38.398753 42.5707115,37.9510377 42.5707115,37.398753 L42.5707115,4 C42.5707115,3.44771525 43.0184267,3 43.5707115,3 L68.5463044,3 C69.0985892,3 69.5463044,3.44771525 69.5463044,4 Z" id="Rectangle-Copy-10" fill="#FFE600"></path>
                                    <polygon id="*" fill="#333333" points="56.9042819 25.9946572 56.6836453 21.7657872 60.2138324 24.0824725 61.0596064 22.6115612 57.3087826 20.6993765 61.0596064 18.7871918 60.2138324 17.3530533 56.6836453 19.6329658 56.9042819 15.4040958 55.212734 15.4040958 55.3965979 19.6329658 51.8664108 17.3530533 51.0574095 18.7871918 54.8082334 20.6993765 51.0574095 22.6115612 51.8664108 24.0824725 55.3965979 21.7657872 55.212734 25.9946572"></polygon>
                                    <polygon id="*-copy" fill="#333333" points="17.3335705 25.9946572 17.1129338 21.7657872 20.6431209 24.0824725 21.4888949 22.6115612 17.7380711 20.6993765 21.4888949 18.7871918 20.6431209 17.3530533 17.1129338 19.6329658 17.3335705 15.4040958 15.6420225 15.4040958 15.8258864 19.6329658 12.2956993 17.3530533 11.4866981 18.7871918 15.2375219 20.6993765 11.4866981 22.6115612 12.2956993 24.0824725 15.8258864 21.7657872 15.6420225 25.9946572"></polygon>
                                    <rect id="Rectangle-Copy-11" stroke="#333333" stroke-width="1.2" fill="#FFFFFF" x="79.141423" y="0" width="32.9755929" height="41.398753" rx="2"></rect>
                                    <path d="M109.117016,4 L109.117016,37.398753 C109.117016,37.9510377 108.669301,38.398753 108.117016,38.398753 L83.141423,38.398753 C82.5891382,38.398753 82.141423,37.9510377 82.141423,37.398753 L82.141423,4 C82.141423,3.44771525 82.5891382,3 83.141423,3 L108.117016,3 C108.669301,3 109.117016,3.44771525 109.117016,4 Z" id="Rectangle-Copy-11" fill="#FFE600"></path>
                                    <rect id="Rectangle-Copy-12" stroke="#333333" stroke-width="1.2" fill="#FFFFFF" x="118.712134" y="0" width="32.9755929" height="41.398753" rx="2"></rect>
                                    <path d="M148.687727,4 L148.687727,37.398753 C148.687727,37.9510377 148.240012,38.398753 147.687727,38.398753 L122.712134,38.398753 C122.15985,38.398753 121.712134,37.9510377 121.712134,37.398753 L121.712134,4 C121.712134,3.44771525 122.15985,3 122.712134,3 L147.687727,3 C148.240012,3 148.687727,3.44771525 148.687727,4 Z" id="Rectangle-Copy-12" fill="#FFE600"></path>
                                    <polygon id="*-copy-2" fill="#333333" points="136.045705 25.9946572 135.825068 21.7657872 139.355255 24.0824725 140.201029 22.6115612 136.450206 20.6993765 140.201029 18.7871918 139.355255 17.3530533 135.825068 19.6329658 136.045705 15.4040958 134.354157 15.4040958 134.538021 19.6329658 131.007834 17.3530533 130.198833 18.7871918 133.949656 20.6993765 130.198833 22.6115612 131.007834 24.0824725 134.538021 21.7657872 134.354157 25.9946572"></polygon>
                                    <polygon id="*-copy-3" fill="#333333" points="96.4749934 25.9946572 96.2543567 21.7657872 99.7845439 24.0824725 100.630318 22.6115612 96.879494 20.6993765 100.630318 18.7871918 99.7845439 17.3530533 96.2543567 19.6329658 96.4749934 15.4040958 94.7834455 15.4040958 94.9673094 19.6329658 91.4371223 17.3530533 90.628121 18.7871918 94.3789448 20.6993765 90.628121 22.6115612 91.4371223 24.0824725 94.9673094 21.7657872 94.7834455 25.9946572"></polygon>
                                </g>
                            </g>
                        </g>
                    </g>
                </g>
            </g>
        </g>
    </g>
</svg>