<svg width="320" height="160" viewBox="0 0 320 160" fill="none" xmlns="http://www.w3.org/2000/svg">
    <g clip-path="url(#clip0_1820_116676)">
        <path fill-rule="evenodd" clip-rule="evenodd" d="M165.452 28.5495C153.565 31.1809 141.091 38.6403 135.375 49.6739C129.097 61.7856 123.444 69.7186 114.018 76.3185C105.019 82.623 86.4457 89.9569 81.009 105.924C74.2386 125.806 89.7672 142.393 112.293 148.72C137.465 155.793 180.229 155.568 209.373 130.063C237.868 105.124 234.537 72.0193 224.141 55.2431C209.727 31.9814 181.718 24.9465 165.452 28.5495Z" fill="black" fill-opacity="0.04"></path>
        <path d="M164.702 48.994L136.949 4.08398H124.065L151.819 48.994H164.702Z" fill="white" stroke="white" stroke-width="4"></path>
        <path d="M138.064 2.08398L168.289 50.994H150.703L120.478 2.08398" stroke="#333333" stroke-width="1.5"></path>
        <path fill-rule="evenodd" clip-rule="evenodd" d="M122.965 51.3968L122.965 143.766C122.965 148.843 127.132 152.96 132.271 152.96H188.398C193.537 152.96 197.704 148.843 197.704 143.766L197.704 51.3968C197.704 46.3219 193.537 42.2031 188.398 42.2031L132.271 42.2031C127.132 42.2031 122.965 46.3219 122.965 51.3968ZM149.331 49.6718C147.674 49.6718 146.331 51.015 146.331 52.6718V53.2664C146.331 54.9233 147.674 56.2664 149.331 56.2664H171.144C172.801 56.2664 174.144 54.9233 174.144 53.2664V52.6718C174.144 51.015 172.801 49.6718 171.144 49.6718H149.331Z" fill="white"></path>
        <path d="M122.965 137.768L122.965 143.766C122.965 148.843 127.132 152.959 132.271 152.959H188.398C193.537 152.959 197.704 148.843 197.704 143.766V137.766C197.704 142.843 193.537 146.959 188.398 146.959H132.271C127.132 146.959 122.966 142.844 122.965 137.768Z" fill="#EEEEEE"></path>
        <path d="M122.965 59.9792L122.965 51.3968C122.965 46.3219 127.132 42.2031 132.271 42.2031L188.398 42.2031C193.537 42.2031 197.704 46.3219 197.704 51.3968L197.704 124.979M122.965 63.8542L122.965 143.766C122.965 148.843 127.132 152.96 132.271 152.96H188.398C193.537 152.96 197.704 148.843 197.704 143.766V135.604M197.704 128.354V131.854M146.331 52.6718C146.331 51.015 147.674 49.6718 149.331 49.6718H171.144C172.801 49.6718 174.144 51.015 174.144 52.6718V53.2664C174.144 54.9233 172.801 56.2664 171.144 56.2664H149.331C147.674 56.2664 146.331 54.9233 146.331 53.2664V52.6718Z" stroke="#333333" stroke-width="1.5"></path>
        <path d="M141.242 117.364H179.428V115.864H141.242V117.364Z" fill="#333333"></path>
        <path d="M141.242 127.014H179.428V125.514H141.242V127.014Z" fill="#333333"></path>
        <path d="M177.663 69.8007V102.083C177.663 102.737 177.132 103.268 176.477 103.268H144.195C143.541 103.268 143.01 102.737 143.01 102.083V69.8007C143.01 69.146 143.541 68.6152 144.195 68.6152H176.477C177.132 68.6152 177.663 69.146 177.663 69.8007Z" fill="#FFE600"></path>
        <path d="M170.539 83.256C170.539 88.8898 165.971 93.4611 160.334 93.4611C154.697 93.4611 150.129 88.8898 150.129 83.256C150.129 77.6221 154.697 73.0508 160.334 73.0508C165.971 73.0508 170.539 77.6221 170.539 83.256Z" fill="white" stroke="#333333" stroke-width="1.5"></path>
        <path d="M178.98 103.657C174.882 97.8352 168.152 94 160.49 94C152.828 94 146.098 97.8352 142 103.657" fill="white"></path>
        <path d="M179.593 103.226C175.363 97.2157 168.41 93.25 160.49 93.25V94.75C167.894 94.75 174.401 98.4548 178.367 104.089L179.593 103.226ZM160.49 93.25C152.57 93.25 145.617 97.2157 141.387 103.226L142.613 104.089C146.579 98.4548 153.086 94.75 160.49 94.75V93.25Z" fill="#333333"></path>
        <rect x="139.453" y="65.0586" width="41.7659" height="41.7659" rx="2" stroke="#333333" stroke-width="1.5"></rect>
        <path d="M155.237 48.994L182.991 4.08398H195.874L168.121 48.994H155.237Z" fill="white" stroke="white" stroke-width="4"></path>
        <path d="M181.876 2.08398L151.65 50.994H169.236L199.461 2.08398" stroke="#333333" stroke-width="1.5"></path>
    </g>
    <defs>
        <clipPath id="clip0_1820_116676">
            <rect width="320" height="160" fill="white"></rect>
        </clipPath>
    </defs>
</svg>